<?xml version="1.0" standalone="no"?>
<!DOCTYPE svg PUBLIC "-//W3C//DTD SVG 20010904//EN"
 "http://www.w3.org/TR/2001/REC-SVG-20010904/DTD/svg10.dtd">
<svg version="1.0" xmlns="http://www.w3.org/2000/svg"
 width="1254.000000pt" height="1254.000000pt" viewBox="0 0 1254.000000 1254.000000"
 preserveAspectRatio="xMidYMid meet">

<g transform="translate(0.000000,1254.000000) scale(0.100000,-0.100000)"
fill="#000000" stroke="none">
<path d="M1 11693 c1 -844 1 -848 18 -748 41 228 97 393 203 596 104 199 290
427 461 566 39 32 74 61 77 64 14 17 191 124 277 168 190 95 370 153 578 186
68 11 -43 13 -767 14 l-848 1 1 -847z"/>
<path d="M10950 12520 c497 -84 918 -340 1217 -741 200 -270 297 -507 366
-899 2 -14 5 354 6 818 l1 842 -847 -1 c-846 -1 -848 -1 -743 -19z"/>
<path d="M5973 9362 c-161 -268 -428 -712 -594 -987 -166 -275 -419 -693 -562
-930 -308 -509 -549 -909 -1109 -1840 -228 -379 -529 -872 -668 -1095 -197
-315 -547 -882 -577 -932 -2 -5 337 -8 754 -8 l759 0 367 548 c202 301 367
551 367 555 0 5 -236 6 -525 3 -289 -3 -525 -4 -525 -2 0 2 48 41 108 86 317
246 638 550 906 855 225 257 504 635 659 895 139 233 528 958 794 1484 125
246 137 267 150 250 8 -10 57 -104 110 -209 260 -519 653 -1252 826 -1540 173
-290 476 -687 779 -1023 204 -224 474 -477 718 -668 62 -49 125 -99 139 -111
l26 -23 -529 7 c-465 6 -529 4 -524 -8 5 -13 380 -583 642 -976 l81 -122 752
-1 753 0 -54 88 c-29 48 -82 134 -118 192 -298 483 -384 623 -546 890 -356
587 -452 749 -947 1590 -365 620 -997 1679 -1445 2420 -128 212 -329 545 -447
740 -117 195 -217 356 -221 357 -4 1 -138 -217 -299 -485z"/>
<path d="M6117 7088 c-122 -284 -867 -1974 -1152 -2613 -125 -280 -237 -530
-248 -555 -11 -25 -62 -142 -114 -260 -53 -118 -138 -308 -189 -422 -52 -114
-94 -210 -94 -213 0 -3 873 -5 1941 -5 l1940 0 -7 23 c-4 12 -72 168 -152 347
-79 179 -179 404 -222 500 -77 175 -404 916 -507 1150 -88 197 -225 513 -343
785 -124 289 -433 994 -512 1170 l-54 120 -50 0 -49 0 3 -72 4 -73 -42 0 -42
0 4 73 3 72 -52 3 c-51 3 -53 2 -66 -30z m212 -365 c1 -27 6 -99 9 -160 l7
-113 -77 0 c-68 0 -78 2 -78 18 0 9 5 81 12 160 l12 142 56 0 56 0 3 -47z m42
-575 c0 -7 8 -113 17 -234 l17 -221 -80 -7 c-44 -3 -107 -6 -139 -6 l-59 0 6
78 c4 42 12 150 19 240 l12 162 103 0 c75 0 103 -3 104 -12z m77 -940 c7 -84
19 -225 27 -313 8 -88 15 -172 15 -187 l0 -28 -226 0 -227 0 6 78 c17 208 47
531 53 565 l6 37 167 0 167 0 12 -152z m90 -1008 c7 -74 27 -285 45 -467 l33
-333 -354 0 -353 0 6 48 c11 91 15 129 50 476 19 193 35 365 35 383 l0 33 263
-2 262 -3 13 -135z"/>
<path d="M1 848 l-1 -848 853 1 c737 1 841 3 769 14 -564 88 -1040 399 -1339
874 -136 216 -244 519 -276 776 -2 17 -5 -351 -6 -817z"/>
<path d="M12530 1655 c0 -45 -58 -298 -86 -375 -170 -473 -504 -858 -931
-1074 -192 -97 -341 -146 -564 -185 l-104 -19 848 -1 847 -1 0 840 c0 462 -2
840 -5 840 -3 0 -5 -11 -5 -25z"/>
</g>
</svg>
