<?xml version="1.0" standalone="no"?>
<!DOCTYPE svg PUBLIC "-//W3C//DTD SVG 20010904//EN"
 "http://www.w3.org/TR/2001/REC-SVG-20010904/DTD/svg10.dtd">
<svg version="1.0" xmlns="http://www.w3.org/2000/svg"
 width="2804.000000pt" height="561.000000pt" viewBox="0 0 2804.000000 561.000000"
 preserveAspectRatio="xMidYMid meet">

<g transform="translate(0.000000,561.000000) scale(0.100000,-0.100000)"
fill="#000000" stroke="none">
<path d="M3742 4764 c-15 -25 -110 -181 -212 -347 -177 -288 -272 -439 -615
-982 -84 -132 -266 -420 -405 -640 -367 -581 -520 -819 -809 -1258 -141 -216
-260 -398 -265 -404 -6 -10 90 -13 466 -13 l473 0 160 232 c258 373 285 413
285 419 0 4 -145 5 -322 2 -177 -2 -320 -2 -317 1 2 2 41 31 86 64 129 96 350
290 457 403 161 169 355 409 473 584 45 67 266 469 452 823 108 204 141 256
141 223 0 -9 303 -580 450 -846 169 -307 409 -616 691 -890 123 -119 372 -329
405 -342 8 -3 14 -10 14 -15 0 -7 -111 -8 -320 -5 l-320 6 12 -22 c6 -12 99
-150 207 -307 108 -157 203 -296 211 -308 l15 -22 467 2 466 3 -68 105 c-500
773 -847 1326 -1525 2430 -147 239 -313 506 -516 830 -75 118 -149 239 -165
267 -16 29 -32 53 -37 53 -4 0 -20 -21 -35 -46z"/>
<path d="M7291 4018 c-5 -13 -32 -85 -60 -162 -29 -76 -124 -324 -212 -550
-89 -226 -213 -544 -276 -706 -63 -162 -117 -301 -120 -307 -4 -10 38 -13 189
-13 l194 0 68 189 68 190 372 3 c204 2 378 2 387 0 11 -3 38 -64 85 -193 l69
-189 194 0 c180 0 193 1 186 18 -4 9 -96 251 -205 537 -109 286 -254 666 -323
845 -68 179 -127 333 -130 343 -6 15 -27 17 -242 17 -235 0 -236 0 -244 -22z
m422 -798 l96 -255 -271 -3 c-149 -1 -273 0 -276 3 -5 5 14 60 167 480 51 138
94 257 97 265 3 8 25 -41 48 -110 24 -69 87 -240 139 -380z"/>
<path d="M11615 3575 c-242 -53 -391 -197 -457 -442 -30 -112 -30 -344 0 -456
60 -220 213 -369 437 -423 92 -23 304 -23 397 0 114 27 194 72 278 156 136
136 182 262 182 500 0 115 -4 161 -21 223 -61 229 -211 380 -435 437 -94 24
-285 26 -381 5z m324 -300 c96 -53 143 -136 162 -289 19 -147 -12 -289 -81
-376 -91 -115 -310 -129 -426 -27 -24 21 -54 57 -65 79 -63 123 -64 355 -3
484 31 65 101 129 163 149 74 24 185 15 250 -20z"/>
<path d="M14985 3576 c-177 -41 -299 -126 -384 -266 -11 -19 -21 -40 -21 -46
0 -11 298 -121 304 -113 1 2 14 24 28 49 48 83 125 121 248 122 170 1 254 -58
262 -182 l3 -55 -70 -12 c-38 -6 -142 -21 -230 -33 -260 -36 -387 -81 -474
-168 -65 -66 -92 -129 -99 -228 -4 -65 0 -96 17 -152 52 -173 237 -275 466
-257 153 11 250 51 344 142 30 29 56 52 57 50 1 -1 6 -33 11 -72 l8 -70 164
-3 163 -3 -6 23 c-19 71 -26 238 -21 503 8 356 0 440 -50 542 -55 111 -141
176 -290 218 -82 23 -347 30 -430 11z m442 -803 c-9 -154 -69 -230 -212 -268
-156 -42 -307 13 -315 115 -6 72 24 120 97 152 48 21 413 99 427 91 5 -3 6
-44 3 -90z"/>
<path d="M19085 3580 c-243 -48 -413 -219 -470 -470 -26 -111 -24 -311 4 -415
71 -271 244 -422 521 -455 221 -27 446 42 569 176 45 49 111 159 101 166 -12
9 -276 118 -286 118 -6 0 -17 -15 -26 -33 -26 -54 -67 -96 -122 -124 -70 -36
-187 -38 -259 -3 -117 56 -172 174 -171 370 0 200 57 320 179 376 57 27 151
32 217 12 51 -15 120 -76 143 -127 10 -23 23 -41 29 -41 13 0 226 84 269 106
l28 15 -33 62 c-68 127 -189 218 -344 257 -81 21 -267 26 -349 10z"/>
<path d="M21808 3571 c-78 -25 -152 -75 -194 -129 l-34 -45 0 77 0 76 -170 0
-170 0 0 -870 0 -870 170 0 170 0 0 301 0 300 50 -51 c31 -31 75 -63 117 -83
60 -28 81 -32 172 -35 122 -5 190 7 279 51 69 33 156 112 199 180 37 58 70
147 88 233 17 85 20 302 4 390 -46 260 -179 425 -386 479 -79 21 -224 19 -295
-4z m195 -294 c95 -56 140 -149 153 -314 20 -276 -93 -447 -296 -446 -213 1
-314 171 -283 480 14 144 43 202 135 272 66 49 213 53 291 8z"/>
<path d="M23091 3580 c-177 -37 -297 -112 -381 -237 -28 -41 -50 -78 -50 -81
0 -6 296 -112 311 -112 4 0 12 13 19 30 17 42 88 104 142 124 68 26 216 20
280 -12 67 -33 91 -71 96 -149 3 -35 1 -63 -2 -63 -34 0 -449 -65 -513 -80
-161 -38 -261 -107 -315 -218 -30 -61 -33 -74 -33 -167 0 -88 3 -107 27 -157
48 -103 148 -179 274 -209 27 -6 92 -12 144 -12 163 0 277 42 378 141 30 28
55 52 57 52 2 0 6 -34 10 -75 l7 -75 165 0 165 0 -7 23 c-5 12 -11 225 -15
472 -7 482 -7 484 -62 588 -52 97 -137 159 -268 198 -59 17 -108 22 -230 25
-85 1 -175 -1 -199 -6z m419 -802 c0 -112 -18 -157 -81 -211 -117 -101 -358
-101 -424 0 -25 37 -24 106 2 141 45 60 86 75 398 141 50 11 93 20 98 20 4 1
7 -41 7 -91z"/>
<path d="M8590 2915 l0 -635 423 0 c466 0 500 4 610 62 103 55 157 153 157
283 0 152 -63 240 -207 290 -37 13 -62 24 -55 24 33 2 128 59 163 100 49 55
62 104 57 206 -9 159 -100 256 -276 294 -34 7 -196 11 -462 11 l-410 0 0 -635z
m740 370 c66 -34 90 -116 55 -185 -30 -58 -60 -65 -265 -65 l-185 0 -3 133 -3
132 186 0 c145 0 192 -3 215 -15z m30 -491 c72 -29 102 -122 64 -195 -30 -58
-74 -69 -296 -69 l-198 0 0 140 0 140 195 0 c155 0 203 -3 235 -16z"/>
<path d="M9882 3418 l3 -133 208 -3 207 -2 0 -500 0 -500 170 0 170 0 0 500 0
500 208 2 207 3 3 133 3 132 -591 0 -591 0 3 -132z"/>
<path d="M12650 2915 l0 -635 165 0 165 0 1 478 c0 295 4 469 9 457 5 -11 66
-173 135 -360 70 -187 146 -392 170 -455 l43 -115 149 -3 150 -3 146 383 c81
211 161 422 179 471 18 48 35 87 38 87 3 0 4 -211 2 -470 l-2 -470 165 0 165
0 0 635 0 635 -258 0 -259 0 -125 -357 c-69 -197 -141 -404 -158 -460 -18 -57
-36 -100 -41 -97 -5 3 -15 26 -23 52 -7 26 -73 216 -146 422 -73 206 -137 390
-143 408 l-10 32 -259 0 -258 0 0 -635z"/>
<path d="M16030 2915 l0 -635 170 0 170 0 0 500 0 500 315 0 315 0 0 135 0
135 -485 0 -485 0 0 -635z"/>
<path d="M17180 2915 l0 -635 202 2 203 3 65 120 c36 66 112 203 168 305 56
102 132 242 170 312 37 71 70 128 73 128 3 0 4 -196 1 -435 l-5 -435 172 0
171 0 0 635 0 635 -205 -2 -206 -3 -151 -270 c-83 -148 -190 -346 -239 -440
l-89 -170 0 443 0 442 -165 0 -165 0 0 -635z"/>
<path d="M19916 3494 c-3 -30 -3 -91 0 -135 l7 -79 206 -2 206 -3 0 -497 0
-498 168 0 167 0 0 500 0 500 205 0 205 0 0 135 0 135 -579 0 -578 0 -7 -56z"/>
<path d="M24249 3418 c-2 -469 -8 -707 -19 -748 -27 -100 -62 -130 -150 -130
l-50 0 0 -134 0 -134 79 -7 c207 -18 342 60 402 232 37 108 49 231 49 516 l0
267 195 0 195 0 0 -500 0 -500 170 0 170 0 0 635 0 635 -520 0 -520 0 -1 -132z"/>
<path d="M25550 2915 l0 -635 373 0 c400 0 426 3 532 54 70 35 131 98 168 175
24 52 31 80 35 155 13 256 -118 408 -382 445 -43 6 -147 11 -232 11 l-154 0 0
215 0 215 -170 0 -170 0 0 -635z m701 -83 c46 -28 69 -75 69 -139 0 -63 -28
-109 -83 -133 -35 -17 -66 -20 -194 -20 l-153 0 0 161 0 161 163 -4 c148 -3
165 -5 198 -26z"/>
<path d="M3612 3033 c-44 -98 -122 -270 -172 -383 -233 -521 -325 -719 -720
-1555 -78 -165 -142 -304 -143 -308 -2 -7 2363 -10 2371 -3 3 4 -173 390 -378
831 -98 211 -223 489 -375 840 -156 357 -232 530 -283 640 -50 107 -52 110
-84 110 -32 0 -33 -1 -30 -37 3 -34 1 -38 -20 -38 -21 0 -23 4 -20 40 4 40 4
40 -31 40 l-34 0 -81 -177z m198 -57 c0 -18 3 -61 6 -95 l7 -61 -48 0 -48 0 7
53 c3 28 6 71 6 95 0 41 1 42 35 42 33 0 35 -2 35 -34z m36 -468 l7 -138 -83
0 -83 0 6 53 c4 28 10 91 13 139 l7 87 56 3 c31 2 59 1 63 -2 4 -3 10 -67 14
-142z m47 -530 c9 -106 14 -194 12 -196 -5 -6 -258 -2 -264 4 -4 4 14 240 26
337 l6 47 101 0 102 0 17 -192z m41 -440 c3 -18 10 -87 16 -153 6 -66 15 -161
21 -212 5 -51 9 -106 9 -123 l0 -30 -211 0 -212 0 6 43 c3 23 16 147 29 275
l23 232 157 0 157 0 5 -32z"/>
</g>
</svg>
