<?xml version="1.0" standalone="no"?>
<!DOCTYPE svg PUBLIC "-//W3C//DTD SVG 20010904//EN"
 "http://www.w3.org/TR/2001/REC-SVG-20010904/DTD/svg10.dtd">
<svg version="1.0" xmlns="http://www.w3.org/2000/svg"
 width="2508.000000pt" height="627.000000pt" viewBox="0 0 2508.000000 627.000000"
 preserveAspectRatio="xMidYMid meet">

<g transform="translate(0.000000,627.000000) scale(0.100000,-0.100000)"
fill="#000000" stroke="none">
<path d="M3695 4758 c-401 -645 -1650 -2551 -2110 -3220 l-95 -138 467 0 468
1 215 305 c118 168 217 309 219 315 2 7 -103 8 -315 4 -199 -4 -315 -3 -309 3
6 5 53 41 106 79 330 243 641 562 880 903 48 69 164 274 408 720 82 151 154
275 158 275 4 0 80 -133 168 -296 254 -470 361 -652 458 -782 247 -332 519
-604 840 -841 42 -31 77 -59 77 -61 0 -2 -142 -3 -315 -2 -173 1 -315 0 -315
-2 0 -2 32 -49 71 -105 40 -56 137 -194 217 -308 l146 -208 463 0 464 0 -154
228 c-137 202 -840 1269 -942 1429 -22 34 -121 190 -221 345 -100 156 -276
432 -391 613 -116 182 -278 436 -360 565 -82 129 -161 254 -174 277 -13 24
-27 43 -30 43 -3 0 -45 -64 -94 -142z"/>
<path d="M6751 3357 c-85 -210 -220 -547 -302 -749 -81 -202 -150 -376 -154
-387 -6 -21 -3 -21 178 -21 l185 0 41 113 c22 61 47 130 54 152 l14 40 312 0
313 0 56 -152 56 -153 183 0 183 0 -6 28 c-7 28 -227 577 -438 1097 -68 165
-133 326 -145 358 l-23 57 -177 0 -176 0 -154 -383z m394 -182 c59 -155 135
-366 135 -372 0 -2 -90 -3 -200 -3 -153 0 -200 3 -200 13 0 26 194 527 201
520 4 -4 33 -75 64 -158z"/>
<path d="M3635 3224 c-41 -86 -75 -158 -75 -160 0 -3 -90 -197 -226 -485 -40
-86 -130 -275 -200 -420 -193 -402 -505 -1063 -507 -1074 -1 -7 388 -10 1150
-10 634 0 1153 3 1153 6 0 6 -29 69 -155 339 -179 382 -433 931 -652 1405
-135 292 -250 536 -255 543 -6 7 -23 12 -37 10 -23 -3 -26 -8 -26 -41 0 -28
-4 -37 -17 -37 -12 0 -18 10 -20 38 -3 32 -7 37 -30 40 -27 3 -31 -3 -103
-154z m178 -41 c3 -5 8 -45 11 -90 l7 -83 -45 0 -44 0 5 78 c2 42 6 83 9 90 4
13 50 17 57 5z m41 -440 c4 -60 10 -118 12 -129 5 -19 0 -22 -38 -26 -24 -3
-60 -3 -82 0 l-39 4 7 87 c4 47 9 105 12 129 l6 42 58 0 57 0 7 -107z m45
-490 c6 -82 14 -165 17 -185 l6 -38 -136 0 -136 0 5 38 c3 20 10 89 15 152 6
63 13 130 16 148 l6 32 98 0 97 0 12 -147z m41 -432 c0 -5 11 -116 25 -247 14
-131 25 -246 25 -256 0 -17 -14 -18 -205 -18 -157 0 -205 3 -205 13 0 6 5 53
11 102 11 103 39 384 39 403 0 9 38 12 155 12 85 0 155 -4 155 -9z"/>
<path d="M10795 3333 c-274 -38 -472 -231 -504 -492 -32 -258 84 -493 297
-600 121 -61 312 -78 456 -41 255 65 416 278 416 551 0 304 -186 527 -484 579
-59 10 -122 11 -181 3z m150 -284 c60 -15 126 -75 156 -141 30 -69 34 -219 6
-287 -54 -133 -179 -191 -321 -149 -57 17 -126 89 -150 156 -36 102 -15 271
42 337 68 80 164 110 267 84z"/>
<path d="M13703 3330 c-64 -10 -186 -46 -234 -70 -50 -26 -139 -98 -139 -113
0 -7 38 -50 84 -96 l83 -83 50 36 c95 68 203 96 300 76 89 -19 153 -94 141
-169 -3 -23 -7 -24 -108 -27 -167 -6 -251 -13 -306 -28 -204 -54 -294 -159
-294 -341 0 -90 21 -152 70 -208 142 -161 440 -169 614 -17 36 32 46 30 46 -9
0 -14 3 -36 6 -48 6 -23 9 -23 153 -23 l146 0 -3 342 c-2 373 -12 486 -45 557
-33 71 -121 153 -192 180 -116 44 -250 59 -372 41z m287 -712 c0 -55 -5 -81
-20 -105 -42 -69 -156 -113 -254 -99 -37 6 -58 16 -83 41 -28 28 -33 40 -33
83 0 103 89 148 303 151 l87 1 0 -72z"/>
<path d="M17165 3334 c-11 -2 -45 -9 -75 -15 -95 -19 -195 -74 -269 -148 -110
-111 -160 -243 -161 -426 0 -274 156 -479 416 -545 203 -52 439 1 572 129 29
27 52 54 52 59 0 5 -45 51 -100 102 l-100 92 -46 -42 c-64 -59 -115 -80 -197
-80 -149 0 -244 86 -266 240 -15 111 11 209 73 278 53 58 124 86 206 80 75 -6
115 -24 177 -81 l44 -41 102 103 102 102 -45 40 c-74 65 -130 98 -211 124 -74
23 -228 40 -274 29z"/>
<path d="M19443 3325 c-68 -19 -123 -47 -168 -86 l-35 -31 0 51 0 51 -155 0
-155 0 2 -762 3 -763 158 -3 157 -3 0 246 0 245 53 -29 c99 -56 223 -74 339
-50 177 37 319 182 373 379 24 90 25 252 1 350 -43 177 -139 311 -264 368
-112 52 -210 63 -309 37z m127 -292 c97 -51 148 -166 137 -309 -10 -137 -74
-228 -181 -259 -83 -24 -165 -7 -243 52 l-33 24 0 209 0 209 43 35 c90 74 185
87 277 39z"/>
<path d="M20575 3330 c-137 -21 -299 -92 -359 -159 -23 -25 -16 -38 77 -129
l74 -74 67 46 c80 55 127 69 226 70 62 0 83 -4 119 -24 53 -30 81 -73 84 -131
l2 -42 -95 -3 c-231 -9 -278 -14 -356 -38 -180 -57 -257 -155 -258 -326 -1
-77 2 -92 32 -153 23 -47 47 -77 79 -102 154 -117 410 -109 567 20 l43 35 7
-31 c3 -17 6 -42 6 -55 l0 -24 156 0 c145 0 156 1 148 18 -4 9 -10 195 -14
412 l-5 395 -28 59 c-56 120 -137 185 -274 220 -77 20 -220 28 -298 16z m290
-720 c0 -91 -18 -122 -97 -165 -45 -25 -64 -29 -128 -29 -90 -1 -135 19 -156
69 -20 48 -18 77 9 115 42 63 131 89 287 87 l85 -2 0 -75z"/>
<path d="M8007 3313 c-4 -3 -7 -255 -7 -560 l1 -553 367 0 c406 0 447 5 554
62 102 54 148 132 148 250 0 128 -56 208 -176 254 l-45 17 51 29 c123 70 153
236 67 365 -41 61 -129 108 -242 128 -83 15 -705 22 -718 8z m640 -249 c44
-33 58 -69 44 -116 -20 -67 -51 -78 -218 -78 l-143 0 0 111 0 111 144 -4 c128
-3 148 -5 173 -24z m43 -419 c24 -15 39 -34 50 -63 14 -40 13 -46 -5 -80 -34
-62 -66 -72 -247 -72 l-158 0 0 121 0 121 163 -3 c141 -4 166 -7 197 -24z"/>
<path d="M9180 3180 l0 -130 170 0 170 0 0 -425 0 -425 160 0 160 0 2 423 3
422 173 3 172 2 0 130 0 130 -505 0 -505 0 0 -130z"/>
<path d="M11730 3303 c0 -35 -100 -849 -124 -1005 l-13 -88 167 0 166 0 11
103 c27 249 58 497 63 497 5 -1 93 -178 200 -402 l60 -127 93 -3 c50 -2 98 -1
105 1 7 2 73 123 146 270 152 302 135 295 161 66 9 -77 24 -201 33 -275 l17
-135 163 -1 162 -1 0 27 c0 14 -7 71 -15 126 -12 82 -89 712 -111 902 l-5 52
-180 -2 -179 -3 -124 -270 c-141 -309 -155 -339 -163 -331 -6 6 -204 435 -251
543 l-27 63 -177 0 c-98 0 -178 -3 -178 -7z"/>
<path d="M14520 2760 l0 -550 160 0 160 0 0 420 0 420 230 0 230 0 0 130 0
130 -390 0 -390 0 0 -550z"/>
<path d="M15460 3288 c0 -13 -1 -68 -2 -123 -1 -55 -1 -292 0 -527 l2 -428
154 0 154 0 68 108 c37 59 129 197 203 307 l136 200 3 -307 2 -308 155 0 155
0 0 550 0 550 -154 0 -154 0 -53 -82 c-29 -46 -120 -186 -203 -313 l-151 -229
-3 312 -2 312 -155 0 c-154 0 -155 0 -155 -22z"/>
<path d="M17780 3180 l0 -130 170 0 170 0 0 -397 c0 -219 3 -408 6 -420 6 -23
9 -23 160 -23 l154 0 0 420 0 420 175 0 175 0 0 130 0 130 -505 0 -505 0 0
-130z"/>
<path d="M21526 3268 c-2 -24 -12 -162 -20 -307 -19 -316 -33 -386 -85 -441
-30 -31 -46 -40 -87 -45 l-50 -7 1 -131 0 -132 105 0 c99 0 110 2 172 33 160
79 216 220 241 612 l12 195 155 0 155 0 3 -417 2 -418 155 0 155 0 0 550 0
550 -454 0 -455 0 -5 -42z"/>
<path d="M22630 2760 l0 -550 308 0 c244 0 320 3 367 15 123 32 213 105 263
213 24 51 27 68 27 172 0 104 -3 121 -27 172 -53 115 -117 171 -238 209 -51
17 -101 22 -227 26 l-163 6 0 143 0 144 -155 0 -155 0 0 -550z m587 -20 c67
-41 89 -116 55 -193 -31 -69 -61 -81 -207 -82 l-120 0 -3 148 -3 147 123 0
c104 0 128 -3 155 -20z"/>
</g>
</svg>
