<?xml version="1.0" standalone="no"?>
<!DOCTYPE svg PUBLIC "-//W3C//DTD SVG 20010904//EN"
 "http://www.w3.org/TR/2001/REC-SVG-20010904/DTD/svg10.dtd">
<svg version="1.0" xmlns="http://www.w3.org/2000/svg"
 width="1254.000000pt" height="1254.000000pt" viewBox="0 0 1254.000000 1254.000000"
 preserveAspectRatio="xMidYMid meet">

<g transform="translate(0.000000,1254.000000) scale(0.100000,-0.100000)"
fill="#000000" stroke="none">
<path d="M6170 9797 c-120 -199 -896 -1479 -1165 -1922 -332 -548 -580 -956
-812 -1340 -580 -959 -833 -1378 -1051 -1735 -447 -733 -765 -1255 -785 -1287
l-19 -33 785 0 785 0 381 575 c210 316 381 577 381 581 0 4 -243 4 -541 1
-302 -4 -539 -3 -537 2 2 5 57 50 123 102 472 365 919 829 1318 1364 184 247
314 451 434 680 61 116 144 273 185 350 117 218 373 716 503 975 l117 235 25
-50 c123 -244 522 -1019 603 -1170 56 -104 146 -271 199 -370 299 -556 885
-1275 1436 -1760 146 -128 307 -260 392 -320 24 -17 43 -33 43 -37 0 -5 -245
-5 -545 -1 -300 3 -545 3 -545 -1 0 -9 196 -309 512 -783 l248 -373 781 0
c627 0 780 3 776 13 -5 12 -136 228 -702 1157 -309 507 -529 869 -1115 1840
-406 672 -692 1145 -993 1640 -132 217 -285 469 -340 560 -55 91 -251 415
-435 720 -184 305 -335 556 -336 557 -1 2 -49 -75 -106 -170z"/>
<path d="M6134 7148 c-6 -7 -24 -44 -41 -83 -61 -138 -473 -1074 -571 -1300
-147 -337 -209 -477 -766 -1728 -278 -626 -506 -1140 -506 -1142 0 -3 911 -5
2025 -5 l2024 0 -33 78 c-34 79 -443 999 -606 1362 -220 492 -614 1382 -805
1820 -114 261 -260 594 -325 740 l-117 265 -49 0 -49 0 -1 -75 0 -75 -37 -1
-37 -1 0 73 c0 66 -2 74 -19 74 -10 0 -32 3 -48 6 -19 4 -33 1 -39 -8z m197
-350 c0 -2 6 -76 13 -165 l11 -163 -80 0 -80 0 7 113 c4 61 10 136 13 165 l6
52 55 0 c30 0 54 -1 55 -2z m49 -640 c0 -12 27 -360 34 -435 l4 -43 -145 0
-145 0 6 63 c3 34 10 121 16 192 6 72 13 154 16 183 l5 52 105 0 c74 0 104 -3
104 -12z m93 -1135 c15 -175 29 -333 32 -350 l4 -33 -235 0 c-129 0 -234 3
-234 8 0 14 50 577 56 635 l7 57 171 0 172 0 27 -317z m71 -780 c3 -21 15
-137 26 -258 12 -121 31 -323 44 -448 12 -125 20 -230 17 -232 -2 -3 -166 -5
-364 -5 l-360 0 6 43 c3 23 24 233 47 467 23 234 44 435 46 448 l4 22 264 0
264 0 6 -37z"/>
</g>
</svg>
