<svg xmlns="http://www.w3.org/2000/svg" viewBox="0 0 1600 1200" fill="none">
  <defs>
    <linearGradient id="bg" x1="240" y1="60" x2="1320" y2="1120" gradientUnits="userSpaceOnUse">
      <stop stop-color="#13202F"/>
      <stop offset=".52" stop-color="#090D12"/>
      <stop offset="1" stop-color="#030406"/>
    </linearGradient>
    <linearGradient id="ice" x1="260" y1="210" x2="1280" y2="1010" gradientUnits="userSpaceOnUse">
      <stop stop-color="#E9F6FF" stop-opacity=".28"/>
      <stop offset="1" stop-color="#B7D6E8" stop-opacity=".05"/>
    </linearGradient>
    <radialGradient id="glow" cx="0" cy="0" r="1" gradientUnits="userSpaceOnUse" gradientTransform="translate(310 250) rotate(37.4) scale(640 430)">
      <stop stop-color="#FF9B39" stop-opacity=".55"/>
      <stop offset="1" stop-color="#FF9B39" stop-opacity="0"/>
    </radialGradient>
    <radialGradient id="blue" cx="0" cy="0" r="1" gradientUnits="userSpaceOnUse" gradientTransform="translate(1220 920) rotate(145) scale(460 320)">
      <stop stop-color="#5EE1FF" stop-opacity=".38"/>
      <stop offset="1" stop-color="#5EE1FF" stop-opacity="0"/>
    </radialGradient>
  </defs>
  <rect width="1600" height="1200" rx="64" fill="url(#bg)"/>
  <rect x="86" y="74" width="1428" height="1052" rx="48" fill="#05070A" stroke="rgba(255,255,255,0.08)"/>
  <path d="M86 74h1428v1052H86z" fill="url(#glow)"/>
  <path d="M86 74h1428v1052H86z" fill="url(#blue)"/>
  <path d="M240 196h1120c78 0 140 62 140 140v530c0 78-62 140-140 140H240c-78 0-140-62-140-140V336c0-78 62-140 140-140Z" fill="url(#ice)" stroke="rgba(255,255,255,0.12)" stroke-width="4"/>
  <path d="M800 196v810" stroke="#F53D3D" stroke-opacity=".6" stroke-width="8"/>
  <path d="M240 602h1120" stroke="rgba(255,255,255,0.16)" stroke-width="4" stroke-dasharray="18 18"/>
  <circle cx="800" cy="602" r="134" stroke="rgba(255,255,255,0.2)" stroke-width="6"/>
  <circle cx="800" cy="602" r="18" fill="#F43F3F"/>
  <g opacity=".75" stroke="rgba(255,255,255,0.12)" stroke-width="4">
    <path d="M358 396c89 0 161 72 161 161s-72 161-161 161"/>
    <path d="M1242 396c-89 0-161 72-161 161s72 161 161 161"/>
    <path d="M280 492h96M280 710h96M1224 492h96M1224 710h96"/>
  </g>
  <g transform="translate(812 246)">
    <circle cx="154" cy="142" r="74" fill="#081016" stroke="rgba(255,255,255,0.16)" stroke-width="4"/>
    <path d="M154 212c-56 0-102 36-120 92l-34 108h308l-34-108c-18-56-64-92-120-92Z" fill="#0C151D"/>
    <path d="m92 380 82-92 36 30-82 92h-36Z" fill="#F7F3EB"/>
    <path d="m172 290 66-68 30 22-66 68-30-22Z" fill="#1F2937"/>
    <path d="M84 444h342" stroke="#F8F1E1" stroke-width="16" stroke-linecap="round"/>
    <path d="M58 462h394" stroke="#111A22" stroke-width="8" stroke-linecap="round"/>
    <circle cx="154" cy="88" r="52" fill="#0A1219"/>
    <path d="M128 98h52" stroke="#FF983A" stroke-width="10" stroke-linecap="round"/>
    <path d="M122 128h64" stroke="#E9F6FF" stroke-opacity=".7" stroke-width="8" stroke-linecap="round"/>
  </g>
  <g>
    <rect x="166" y="138" width="248" height="72" rx="26" fill="rgba(255,255,255,0.05)" stroke="rgba(255,255,255,0.12)"/>
    <text x="202" y="185" fill="#F6F5F1" font-family="Arial, sans-serif" font-size="36" font-weight="700">SEASON 2026</text>
    <rect x="1180" y="138" width="250" height="72" rx="26" fill="rgba(255,255,255,0.05)" stroke="rgba(255,255,255,0.12)"/>
    <text x="1218" y="185" fill="#F8A340" font-family="Arial, sans-serif" font-size="34" font-weight="700">GAME READY</text>
  </g>
  <text x="166" y="1020" fill="#F8F1E1" font-family="Arial, sans-serif" font-size="152" font-weight="900" letter-spacing="-4">GORILLA</text>
  <text x="172" y="1086" fill="#8BA2B3" font-family="Arial, sans-serif" font-size="36" font-weight="700" letter-spacing="12">SCHOOL / TEAM / ICE</text>
</svg>
