<svg xmlns="http://www.w3.org/2000/svg" viewBox="0 0 820 560" fill="none">
  <rect width="820" height="560" rx="34" fill="#09111A"/>
  <path d="M80 152 214 88l124 40 128-34 116 52 122 14 40 126-52 102-126 46-112 64-158-20-128 10-106-102 52-148Z" fill="#0F1923" stroke="rgba(255,255,255,0.12)" stroke-width="3"/>
  <path d="M122 210c96 24 178 48 246 72 58 22 126 54 204 96" stroke="#62DAFF" stroke-width="10" stroke-linecap="round"/>
  <path d="M184 412c46-54 92-98 138-132 32-24 82-58 150-102" stroke="#F8A245" stroke-width="8" stroke-linecap="round"/>
  <circle cx="572" cy="378" r="18" fill="#F7F5EE"/>
  <circle cx="460" cy="178" r="14" fill="#F8A245"/>
  <rect x="88" y="70" width="262" height="64" rx="22" fill="rgba(255,255,255,0.06)" stroke="rgba(255,255,255,0.12)"/>
  <text x="122" y="112" fill="#F7F5EE" font-family="Arial, sans-serif" font-size="26" font-weight="800">NIZHNY NOVGOROD</text>
  <text x="88" y="514" fill="#A9C1D0" font-family="Arial, sans-serif" font-size="24" font-weight="700">route preview / team location</text>
</svg>
