<svg xmlns="http://www.w3.org/2000/svg" viewBox="0 0 900 700" fill="none">
  <defs>
    <linearGradient id="bg" x1="96" y1="40" x2="828" y2="662" gradientUnits="userSpaceOnUse">
      <stop stop-color="#131E2A"/>
      <stop offset="1" stop-color="#04070A"/>
    </linearGradient>
  </defs>
  <rect width="900" height="700" rx="40" fill="url(#bg)"/>
  <rect x="80" y="90" width="740" height="520" rx="42" fill="#081018" stroke="rgba(255,255,255,0.12)"/>
  <path d="M80 90h740v520H80z" fill="rgba(93,214,255,0.08)"/>
  <path d="M450 112v476" stroke="#F25757" stroke-opacity=".44" stroke-width="6"/>
  <path d="M128 350h644" stroke="rgba(255,255,255,0.16)" stroke-width="4" stroke-dasharray="14 14"/>
  <circle cx="450" cy="350" r="92" stroke="rgba(255,255,255,0.18)" stroke-width="4"/>
  <g fill="#0D1821">
    <circle cx="286" cy="310" r="34"/>
    <path d="M286 354c-38 0-68 28-82 70l-12 36h188l-12-36c-14-42-44-70-82-70Z"/>
    <circle cx="450" cy="270" r="40"/>
    <path d="M450 322c-44 0-78 30-92 76l-14 44h212l-14-44c-14-46-48-76-92-76Z"/>
    <circle cx="612" cy="330" r="32"/>
    <path d="M612 372c-36 0-64 24-78 64l-12 32h180l-10-32c-14-40-42-64-80-64Z"/>
  </g>
  <text x="110" y="154" fill="#9EB5C8" font-family="Arial, sans-serif" font-size="24" font-weight="700" letter-spacing="8">MID GROUP</text>
  <text x="110" y="220" fill="#F7F5EE" font-family="Arial, sans-serif" font-size="84" font-weight="900">PACE</text>
  <text x="110" y="560" fill="#D4E7F3" font-family="Arial, sans-serif" font-size="28" font-weight="700">group timing / puck work / confidence under pressure</text>
</svg>
