<svg xmlns="http://www.w3.org/2000/svg" viewBox="0 0 900 700" fill="none">
  <defs>
    <linearGradient id="bg" x1="64" y1="24" x2="798" y2="642" gradientUnits="userSpaceOnUse">
      <stop stop-color="#0E141C"/>
      <stop offset=".55" stop-color="#0B1B25"/>
      <stop offset="1" stop-color="#030507"/>
    </linearGradient>
    <radialGradient id="gold" cx="0" cy="0" r="1" gradientUnits="userSpaceOnUse" gradientTransform="translate(700 144) rotate(149) scale(260 180)">
      <stop stop-color="#FF9C45" stop-opacity=".4"/>
      <stop offset="1" stop-color="#FF9C45" stop-opacity="0"/>
    </radialGradient>
  </defs>
  <rect width="900" height="700" rx="40" fill="url(#bg)"/>
  <path d="M0 0h900v700H0z" fill="url(#gold)"/>
  <path d="M102 150h696c52 0 94 42 94 94v212c0 52-42 94-94 94H102c-52 0-94-42-94-94V244c0-52 42-94 94-94Z" fill="#0A1118" stroke="rgba(255,255,255,0.12)"/>
  <path d="M450 150v400" stroke="#64C9FF" stroke-opacity=".42" stroke-width="6"/>
  <circle cx="450" cy="350" r="90" stroke="rgba(255,255,255,0.18)" stroke-width="4"/>
  <g transform="translate(236 230)">
    <circle cx="82" cy="58" r="34" fill="#081018"/>
    <path d="M82 104c-40 0-70 28-86 72L-20 230h206l-16-54c-14-44-44-72-88-72Z" fill="#0F1922"/>
  </g>
  <g transform="translate(454 198)">
    <circle cx="92" cy="64" r="44" fill="#09111A"/>
    <path d="M92 118c-46 0-84 32-100 80L-24 252h232l-16-54c-16-48-54-80-100-80Z" fill="#131F2A"/>
    <path d="m6 274 110-94 28 28-110 94H6Z" fill="#F7F3EA"/>
    <path d="M0 292h260" stroke="#F8F1E1" stroke-width="20" stroke-linecap="round"/>
    <path d="M0 302h260" stroke="#111B23" stroke-width="8" stroke-linecap="round"/>
  </g>
  <text x="92" y="136" fill="#9AB8CB" font-family="Arial, sans-serif" font-size="24" font-weight="700" letter-spacing="8">FAMILY ICE</text>
  <text x="90" y="218" fill="#F7F5EE" font-family="Arial, sans-serif" font-size="78" font-weight="900">TOGETHER</text>
  <text x="90" y="574" fill="#D4E7F3" font-family="Arial, sans-serif" font-size="28" font-weight="700">parent + child / shared first ice / club entry</text>
</svg>
